<svg width="68" height="68" viewBox="0 0 68 68" fill="none" xmlns="http://www.w3.org/2000/svg">
<rect width="68" height="68" rx="6" fill="#EB524F"/>
<g clip-path="url(#clip0_48_9347)">
<path d="M29.5238 22.573C30.7719 22.9618 31.1592 23.9662 31.1592 25.111C31.1484 26.0182 31.0408 26.9255 30.8257 27.8111C30.363 29.8307 29.7928 31.8287 29.3194 33.8376C28.932 35.49 28.577 37.164 28.5662 38.8705C28.577 39.3349 28.6523 39.7993 28.7814 40.2421C29.0289 41.1277 29.7713 41.1925 30.3307 40.6525C30.6858 40.3069 31.0086 39.9397 31.2991 39.5401C32.6977 37.6716 33.935 35.6844 34.9894 33.6C36.0116 31.6019 38.3463 27.0875 38.4862 26.8174C39.2178 25.4674 41.2405 25.6942 41.8538 27.0119C42.1981 27.7247 42.3917 28.5131 42.424 29.3015C42.4778 31.0079 42.6392 35.7708 42.7145 36.4512C42.8544 37.7688 43.6936 38.1901 44.8125 37.4556C45.4904 37.0128 46.1036 36.4512 46.7169 35.922C47.2871 35.4144 47.5884 35.4684 47.8681 36.1812C48.1156 36.8076 48.008 37.434 47.8036 38.0281C47.115 40.0369 45.6195 41.1061 43.629 41.5381C42.9942 41.6785 42.3379 41.6893 41.6924 41.5813C40.2614 41.3437 39.3469 40.5121 38.7982 39.2269C38.271 37.9849 38.1096 34.4532 37.9912 33.9996C37.7976 34.41 35.5059 39.1513 34.3009 40.9549C33.5477 42.1105 32.6332 43.1581 31.5788 44.0546C30.5352 44.9294 29.3516 45.4694 27.9637 45.5018C26.2853 45.545 25.0695 44.7782 24.2303 43.3525C23.6923 42.4345 23.4664 41.4085 23.3911 40.3501C23.2835 38.8705 23.5202 37.4232 23.843 35.976C23.9506 35.5116 24.0259 35.0364 24.1442 34.4424C23.6816 34.68 23.3803 34.896 23.036 35.0148C22.6272 35.1552 22.1861 35.2956 21.7557 35.2848C20.2279 35.2416 20.002 33.546 20.002 33.2652C20.5184 32.8656 21.0671 32.4984 21.5405 32.0663C23.7999 30.0143 25.4999 27.5519 26.7264 24.7654C27.1353 23.8474 27.6409 23.059 28.5447 22.573C28.846 22.4434 29.1149 22.4326 29.5238 22.573Z" fill="white"/>
</g>
<defs>
<clipPath id="clip0_48_9347">
<rect width="28" height="28" fill="white" transform="translate(20 20)"/>
</clipPath>
</defs>
</svg>
