<svg width="68" height="68" viewBox="0 0 68 68" fill="none" xmlns="http://www.w3.org/2000/svg">
<rect width="68" height="68" rx="8" fill="#E7F0FA"/>
<path opacity="0.2" d="M43 33.001L40.2026 25.5414C40.141 25.3771 40.0373 25.2319 39.9018 25.1204C39.7663 25.0088 39.6038 24.9349 39.4307 24.9061L22 22.001L24.9052 39.4317C24.934 39.6048 25.0079 39.7672 25.1194 39.9027C25.2309 40.0382 25.3761 40.142 25.5404 40.2036L33 43.001L43 33.001ZM30.0004 32.5002C30.0004 32.0058 30.147 31.5224 30.4218 31.1113C30.6965 30.7002 31.0869 30.3798 31.5437 30.1905C32.0005 30.0013 32.5032 29.9518 32.9882 30.0483C33.4731 30.1447 33.9186 30.3828 34.2682 30.7325C34.6178 31.0821 34.8559 31.5276 34.9524 32.0125C35.0489 32.4975 34.9993 33.0001 34.8101 33.457C34.6209 33.9138 34.3005 34.3042 33.8894 34.5789C33.4782 34.8536 32.9949 35.0002 32.5004 35.0002C32.1721 35.0002 31.847 34.9356 31.5437 34.81C31.2404 34.6843 30.9648 34.5002 30.7327 34.268C30.5005 34.0359 30.3164 33.7603 30.1907 33.457C30.0651 33.1536 30.0004 32.8286 30.0004 32.5002Z" fill="#0A65CC"/>
<path d="M30 32.5C30 33.8807 31.1193 35 32.5 35C33.8807 35 35 33.8807 35 32.5C35 31.1193 33.8807 30 32.5 30C31.1193 30 30 31.1193 30 32.5Z" stroke="#0A65CC" stroke-width="2" stroke-linecap="round" stroke-linejoin="round"/>
<path d="M21.9998 22.001L30.7324 30.7325" stroke="#0A65CC" stroke-width="2" stroke-linecap="round" stroke-linejoin="round"/>
<path d="M22 22.001L24.9051 39.4317C24.934 39.6048 25.0079 39.7672 25.1194 39.9027C25.2309 40.0382 25.3761 40.142 25.5404 40.2036L33 43.001L43 33.001L40.2026 25.5414C40.141 25.3771 40.0373 25.2319 39.9018 25.1203C39.7663 25.0088 39.6038 24.9349 39.4307 24.9061L22 22.001Z" stroke="#0A65CC" stroke-width="2" stroke-linecap="round" stroke-linejoin="round"/>
<path d="M33.0001 43.001L36.293 46.2939C36.3859 46.3867 36.4961 46.4604 36.6175 46.5106C36.7388 46.5609 36.8688 46.5868 37.0001 46.5868C37.1315 46.5868 37.2615 46.5609 37.3828 46.5106C37.5042 46.4604 37.6144 46.3867 37.7073 46.2939L46.293 37.7081C46.4806 37.5205 46.5859 37.2662 46.5859 37.001C46.5859 36.7358 46.4806 36.4814 46.293 36.2939L43.0001 33.001" stroke="#0A65CC" stroke-width="2" stroke-linecap="round" stroke-linejoin="round"/>
</svg>
