<svg width="72" height="72" viewBox="0 0 72 72" fill="none" xmlns="http://www.w3.org/2000/svg">
<rect width="72" height="72" rx="4" fill="#E7F0FA"/>
<g clip-path="url(#clip0_288_3468)">
<path opacity="0.2" d="M36.0007 39.7496C30.7348 39.7578 25.5603 38.3735 21.002 35.7368V48.4996C21.002 48.6637 21.0343 48.8263 21.0971 48.9779C21.1599 49.1296 21.252 49.2674 21.3681 49.3834C21.4841 49.4995 21.6219 49.5916 21.7736 49.6544C21.9253 49.7172 22.0878 49.7496 22.252 49.7496H49.752C49.9161 49.7496 50.0787 49.7172 50.2303 49.6544C50.382 49.5916 50.5198 49.4995 50.6358 49.3834C50.7519 49.2674 50.844 49.1296 50.9068 48.9779C50.9696 48.8263 51.002 48.6637 51.002 48.4996V35.7354C46.4431 38.3729 41.2676 39.7578 36.0007 39.7496Z" fill="#0A65CC"/>
<path d="M49.752 27.25H22.252C21.5616 27.25 21.002 27.8096 21.002 28.5V48.5C21.002 49.1904 21.5616 49.75 22.252 49.75H49.752C50.4423 49.75 51.002 49.1904 51.002 48.5V28.5C51.002 27.8096 50.4423 27.25 49.752 27.25Z" stroke="#0A65CC" stroke-width="2" stroke-linecap="round" stroke-linejoin="round"/>
<path d="M42.25 27.25V24.75C42.25 24.087 41.9866 23.4511 41.5178 22.9822C41.0489 22.5134 40.413 22.25 39.75 22.25H32.25C31.587 22.25 30.9511 22.5134 30.4822 22.9822C30.0134 23.4511 29.75 24.087 29.75 24.75V27.25" stroke="#0A65CC" stroke-width="2" stroke-linecap="round" stroke-linejoin="round"/>
<path d="M51.0022 35.7363C46.4433 38.3739 41.2679 39.7588 36.0009 39.7505C30.7349 39.7588 25.5603 38.3744 21.002 35.7377" stroke="#0A65CC" stroke-width="2" stroke-linecap="round" stroke-linejoin="round"/>
<path d="M34.125 34.75H37.875" stroke="#0A65CC" stroke-width="2" stroke-linecap="round" stroke-linejoin="round"/>
</g>
<defs>
<clipPath id="clip0_288_3468">
<rect width="40" height="40" fill="white" transform="translate(16 16)"/>
</clipPath>
</defs>
</svg>
