<svg width="68" height="68" viewBox="0 0 68 68" fill="none" xmlns="http://www.w3.org/2000/svg">
<rect width="68" height="68" rx="6" fill="#6FDA44"/>
<path d="M41.5641 35.3283C40.2966 35.3283 39.1089 34.7929 38.0298 33.9214L38.2925 32.6911L38.304 32.6455C38.5379 31.3356 39.2802 29.1369 41.5641 29.1369C43.2769 29.1369 44.6701 30.5267 44.6701 32.2354C44.6643 33.9384 43.2713 35.3283 41.5641 35.3283ZM41.5641 25.9986C38.6464 25.9986 36.3855 27.8896 35.4664 30.9995C34.0617 28.8977 32.9997 26.3746 32.3774 24.25H29.2372V32.4006C29.2372 34.0068 27.9239 35.3167 26.3138 35.3167C24.7037 35.3167 23.3906 34.0068 23.3906 32.4006V24.25H20.25V32.4006C20.2386 35.7384 22.9621 38.4779 26.3079 38.4779C29.6538 38.4779 32.3773 35.7384 32.3773 32.4006V31.0337C32.9881 32.3038 33.7361 33.5853 34.6439 34.7245L32.7197 43.7464H35.9343L37.3274 37.2021C38.5492 37.9824 39.9538 38.4723 41.564 38.4723C45.0068 38.4723 47.8102 35.6586 47.8102 32.224C47.8102 28.7952 45.0068 25.9986 41.564 25.9986H41.5641Z" fill="white"/>
</svg>
