<svg width="56" height="56" viewBox="0 0 56 56" fill="none" xmlns="http://www.w3.org/2000/svg">
<rect width="56" height="56" rx="4" fill="#1E60C6"/>
<path d="M20.1769 32.101C20.0867 31.6129 19.9694 31.1339 19.9062 30.6459C19.6536 28.7389 20.0596 26.9764 21.1874 25.4038C22.0716 24.1656 23.2807 23.307 24.6701 22.7105C26.3393 21.9965 28.1348 21.6079 29.9483 21.5717C31.5634 21.5265 32.9709 22.123 34.1979 23.1353C35.4611 24.1837 36.4355 25.4761 37.1844 26.9313C37.5453 27.6362 37.8791 28.3593 38.222 29.0823C38.2581 29.1636 38.2851 29.254 38.3032 29.3444C37.825 29.6336 37.3648 29.9319 36.8776 30.194C35.0731 31.1881 33.1243 31.866 31.0942 32.2185C29.9844 32.4083 28.8656 32.5167 27.7468 32.589C26.6822 32.6613 25.6175 32.6975 24.5528 32.6704C23.1002 32.6342 21.6566 32.4083 20.1769 32.101ZM22.4686 27.2566C22.4416 28.8473 23.7318 30.1307 25.3017 30.1488C26.8175 30.1669 28.234 29.001 28.234 27.2928C28.234 25.5213 26.8716 24.4006 25.3468 24.4006C23.7679 24.4006 22.4776 25.675 22.4686 27.2566ZM33.5573 28.0881C34.4145 28.1514 35.3709 27.4374 35.3799 26.2624C35.3889 25.2863 34.6039 24.491 33.6295 24.482H33.5934C32.6009 24.4639 31.7889 25.2592 31.7709 26.2444V26.2715C31.7709 27.3018 32.5378 28.0881 33.5573 28.0881Z" fill="white"/>
<path d="M38.3581 29.752C38.4844 31.2703 38.1054 32.608 37.3475 33.8371C36.319 35.5001 34.7851 36.5485 32.9806 37.2083C31.14 37.8771 29.1821 38.1392 27.2333 37.9946C26.0694 37.9132 24.8964 37.7415 23.8498 37.1902C22.0453 36.2322 20.9265 34.7048 20.34 32.7616C20.313 32.6441 20.3039 32.5176 20.2949 32.4001C26.6558 33.8733 32.6919 33.2225 38.3581 29.752Z" fill="white"/>
<path d="M38.0599 24.229C38.5291 24.0573 38.5291 24.0483 38.4839 23.6054C38.4569 23.3523 38.4479 23.0993 38.5742 22.8553C38.6283 22.7558 38.6193 22.6293 38.6283 22.5118C38.6463 22.1503 38.9441 21.8701 39.305 21.8701C39.6659 21.8701 39.9727 22.1593 39.9907 22.5209C39.9907 22.8824 39.702 23.1806 39.3411 23.1987C39.2238 23.2077 39.1065 23.1987 38.9441 23.1987C38.926 23.3795 38.89 23.5421 38.908 23.6958C38.9621 24.1387 38.89 24.5092 38.3847 24.699L39.4133 26.5247L37.8704 27.4827C37.2208 25.9734 36.2283 24.7261 35.0373 23.5873L35.9576 22.4666C36.8148 22.8733 37.4554 23.5241 38.0599 24.229ZM19.4915 29.8235L17.9937 29.3174C17.9215 28.4136 18.111 27.5731 18.4448 26.7506L17.9215 25.9191C17.7321 25.9191 17.5426 25.9553 17.3802 25.9101C17.0193 25.8288 16.6674 25.7203 16.3336 25.5847C16.0719 25.4763 15.9546 25.1148 16.0268 24.8527C16.1261 24.5363 16.4238 24.3375 16.7486 24.3646C17.0554 24.3917 17.308 24.6267 17.3531 24.934C17.3712 25.0786 17.3531 25.2322 17.3531 25.413H18.1471C18.4809 25.5486 18.4629 25.9553 18.7155 26.2174C19.2118 25.5667 19.699 24.9159 20.4388 24.455L21.1245 24.9882C20.6012 25.7113 20.0418 26.3891 19.8524 27.2296C19.6629 28.0792 19.6088 28.9288 19.4915 29.8235Z" fill="white"/>
<path d="M25.6271 22.1956L25.3203 21.4364C26.1684 20.7586 27.1338 20.4784 28.1534 20.3428C28.1714 20.0717 28.0361 19.9542 27.8286 19.8457C27.1248 19.4842 27.0075 18.6347 27.5669 18.1195C27.9008 17.8122 28.2978 17.767 28.6947 17.9207C29.0556 18.0472 29.3083 18.3816 29.3353 18.7702C29.3985 19.186 29.2 19.5927 28.8391 19.8006C28.7399 19.8548 28.6316 19.9 28.5323 19.9452L28.6406 20.2886C29.5519 20.2705 30.4451 20.2796 31.3293 20.6321L31.203 21.3822C29.3353 21.3912 27.4406 21.2918 25.6271 22.1956Z" fill="white"/>
</svg>
