<svg width="68" height="68" viewBox="0 0 68 68" fill="none" xmlns="http://www.w3.org/2000/svg">
<rect width="68" height="68" rx="6" fill="#191F33"/>
<path d="M35.1799 22.4375C37.0187 20.0128 39.575 20.001 39.575 20.001C39.575 20.001 39.9553 22.2806 38.1286 24.4766C36.1781 26.8215 33.9611 26.4378 33.9611 26.4378C33.9611 26.4378 33.5448 24.5936 35.1799 22.4375ZM34.1949 28.0347C35.1409 28.0347 36.8966 26.7337 39.1818 26.7337C43.1154 26.7337 44.6629 29.5341 44.6629 29.5341C44.6629 29.5341 41.6363 31.0823 41.6363 34.8388C41.6363 39.0765 45.4066 40.537 45.4066 40.537C45.4066 40.537 42.771 47.9587 39.2111 47.9587C37.576 47.9587 36.3048 46.8564 34.582 46.8564C32.8264 46.8564 31.0842 47.9999 29.9494 47.9999C26.6987 47.9999 22.5918 40.9597 22.5918 35.3004C22.5918 29.7326 26.068 26.8117 29.3285 26.8117C31.4481 26.8117 33.093 28.0347 34.1949 28.0347Z" fill="white"/>
</svg>
