<svg width="56" height="56" viewBox="0 0 56 56" fill="none" xmlns="http://www.w3.org/2000/svg">
<rect width="56" height="56" rx="4" fill="#EDEFF5"/>
<g clip-path="url(#clip0_48_9583)">
<path fill-rule="evenodd" clip-rule="evenodd" d="M24.8319 16C23.508 16.001 22.4365 17.0755 22.4375 18.3995C22.4365 19.7235 23.509 20.798 24.8329 20.799H27.2283V18.4005C27.2292 17.0765 26.1568 16.002 24.8319 16C24.8329 16 24.8329 16 24.8319 16V16ZM24.8319 22.4H18.4462C17.1222 22.401 16.0498 23.4755 16.0508 24.7995C16.0488 26.1235 17.1213 27.198 18.4452 27.2H24.8319C26.1558 27.199 27.2282 26.1245 27.2273 24.8005C27.2282 23.4755 26.1558 22.401 24.8319 22.4Z" fill="#36C5F0"/>
<path fill-rule="evenodd" clip-rule="evenodd" d="M40.0007 24.7995C40.0017 23.4755 38.9293 22.401 37.6053 22.4C36.2814 22.401 35.209 23.4755 35.21 24.7995V27.2H37.6053C38.9293 27.199 40.0017 26.1245 40.0007 24.7995ZM33.614 24.7995V18.3995C33.615 17.0765 32.5435 16.002 31.2196 16C29.8957 16.001 28.8232 17.0755 28.8242 18.3995V24.7995C28.8223 26.1235 29.8947 27.198 31.2186 27.2C32.5425 27.199 33.615 26.1245 33.614 24.7995Z" fill="#2EB67D"/>
<path fill-rule="evenodd" clip-rule="evenodd" d="M31.2176 39.9998C32.5416 39.9988 33.614 38.9244 33.613 37.6003C33.614 36.2763 32.5416 35.2018 31.2176 35.2008H28.8223V37.6003C28.8213 38.9234 29.8937 39.9979 31.2176 39.9998ZM31.2176 33.5988H37.6044C38.9283 33.5979 40.0007 32.5234 39.9997 31.1993C40.0017 29.8753 38.9293 28.8008 37.6053 28.7988H31.2186C29.8947 28.7998 28.8223 29.8743 28.8232 31.1983C28.8223 32.5234 29.8937 33.5979 31.2176 33.5988Z" fill="#ECB22E"/>
<path fill-rule="evenodd" clip-rule="evenodd" d="M16.0508 31.1993C16.0498 32.5234 17.1222 33.5979 18.4462 33.5988C19.7701 33.5979 20.8425 32.5234 20.8415 31.1993V28.7998H18.4462C17.1222 28.8008 16.0498 29.8753 16.0508 31.1993ZM22.4375 31.1993V37.5993C22.4355 38.9234 23.508 39.9979 24.8319 39.9998C26.1558 39.9988 27.2283 38.9243 27.2273 37.6003V31.2013C27.2292 29.8772 26.1568 28.8027 24.8329 28.8008C23.508 28.8008 22.4365 29.8753 22.4375 31.1993C22.4375 31.2003 22.4375 31.1993 22.4375 31.1993Z" fill="#E01E5A"/>
</g>
<defs>
<clipPath id="clip0_48_9583">
<rect width="24" height="24" fill="white" transform="translate(16 16)"/>
</clipPath>
</defs>
</svg>
