<svg width="68" height="68" viewBox="0 0 68 68" fill="none" xmlns="http://www.w3.org/2000/svg">
<rect width="68" height="68" rx="6" fill="#EDEFF5"/>
<g clip-path="url(#clip0_48_9415)">
<path d="M26.2054 36.9207L25.2307 40.5592L21.6685 40.6346C20.6039 38.66 20 36.4008 20 34C20 31.6785 20.5646 29.4892 21.5654 27.5615H21.5661L24.7376 28.143L26.1269 31.2954C25.8361 32.1431 25.6776 33.0531 25.6776 34C25.6777 35.0277 25.8639 36.0123 26.2054 36.9207Z" fill="#FBBB00"/>
<path d="M47.7562 31.3848C47.917 32.2317 48.0008 33.1063 48.0008 34.0001C48.0008 35.0025 47.8954 35.9802 47.6947 36.9232C47.0132 40.1325 45.2324 42.9348 42.7655 44.9178L42.7647 44.9171L38.7701 44.7133L38.2048 41.184C39.8417 40.224 41.1209 38.7217 41.7948 36.9232H34.3086V31.3848H41.904H47.7562Z" fill="#518EF8"/>
<path d="M42.7633 44.917L42.7641 44.9178C40.3649 46.8462 37.3172 48.0001 33.9995 48.0001C28.668 48.0001 24.0326 45.0201 21.668 40.6347L26.2049 36.9209C27.3872 40.0763 30.431 42.3224 33.9995 42.3224C35.5333 42.3224 36.9703 41.9078 38.2033 41.184L42.7633 44.917Z" fill="#28B446"/>
<path d="M42.9352 23.2231L38.3998 26.9361C37.1237 26.1385 35.6152 25.6777 33.9991 25.6777C30.3498 25.6777 27.2491 28.0269 26.126 31.2954L21.5652 27.5615H21.5645C23.8945 23.0692 28.5883 20 33.9991 20C37.396 20 40.5106 21.21 42.9352 23.2231Z" fill="#F14336"/>
</g>
<defs>
<clipPath id="clip0_48_9415">
<rect width="28" height="28" fill="white" transform="translate(20 20)"/>
</clipPath>
</defs>
</svg>
