<svg width="68" height="68" viewBox="0 0 68 68" fill="none" xmlns="http://www.w3.org/2000/svg">
<rect width="68" height="68" rx="8" fill="#E7F0FA"/>
<g clip-path="url(#clip0_48_9197)">
<path opacity="0.2" d="M44.72 23.373C44.869 23.3295 45.0261 23.3214 45.1789 23.3491C45.3316 23.3769 45.4758 23.4399 45.6 23.533C45.7242 23.6262 45.825 23.7469 45.8944 23.8858C45.9639 24.0246 46 24.1778 46 24.333V41.6663C46 41.8216 45.9639 41.9747 45.8944 42.1135C45.825 42.2524 45.7242 42.3732 45.6 42.4663C45.4758 42.5595 45.3316 42.6224 45.1789 42.6502C45.0261 42.678 44.869 42.6698 44.72 42.6263L32.9993 39.2078V26.7915L44.72 23.373Z" fill="#0A65CC"/>
<path d="M46 24.333V41.6663C46 41.8216 45.9639 41.9747 45.8944 42.1135C45.825 42.2524 45.7242 42.3732 45.6 42.4663C45.4758 42.5595 45.3316 42.6224 45.1789 42.6502C45.0261 42.678 44.869 42.6698 44.72 42.6263L22.72 36.2097C22.5123 36.1491 22.3298 36.0228 22.2 35.8497C22.0702 35.6766 22 35.466 22 35.2497V30.7497C22 30.5333 22.0702 30.3228 22.2 30.1497C22.3298 29.9766 22.5123 29.8503 22.72 29.7897L44.72 23.373C44.869 23.3295 45.0261 23.3214 45.1789 23.3491C45.3316 23.3769 45.4758 23.4399 45.6 23.533C45.7242 23.6262 45.825 23.7469 45.8944 23.8858C45.9639 24.0246 46 24.1778 46 24.333V24.333Z" stroke="#0A65CC" stroke-width="2" stroke-linecap="round" stroke-linejoin="round"/>
<path d="M27 37.4582V42.0001C27 42.2653 27.1054 42.5197 27.2929 42.7072C27.4804 42.8948 27.7348 43.0001 28 43.0001H32C32.2652 43.0001 32.5196 42.8948 32.7071 42.7072C32.8946 42.5197 33 42.2653 33 42.0001V26.792" stroke="#0A65CC" stroke-width="2" stroke-linecap="round" stroke-linejoin="round"/>
</g>
<defs>
<clipPath id="clip0_48_9197">
<rect width="32" height="32" fill="white" transform="matrix(-1 0 0 1 50 18)"/>
</clipPath>
</defs>
</svg>
