<?xml version="1.0" encoding="UTF-8"?>
<svg xmlns="http://www.w3.org/2000/svg" xmlns:xlink="http://www.w3.org/1999/xlink" width="56px" height="56px" viewBox="0 0 56 56" version="1.1">
<g id="surface1">
<path style=" stroke:none;fill-rule:nonzero;fill:rgb(0%,0%,0%);fill-opacity:1;" d="M 26.90625 4.703125 C 22.632812 4.941406 18.648438 6.261719 15.148438 8.59375 C 13.835938 9.480469 12.832031 10.300781 11.667969 11.457031 C 9.351562 13.746094 7.609375 16.378906 6.398438 19.433594 C 4.96875 23.03125 4.464844 27.0625 4.96875 31.007812 C 5.386719 34.351562 6.570312 37.617188 8.386719 40.476562 C 9.125 41.636719 9.878906 42.628906 10.828125 43.675781 C 11.265625 44.160156 12.230469 45.117188 12.695312 45.519531 C 17.628906 49.828125 23.972656 51.851562 30.507812 51.195312 C 34.105469 50.839844 37.625 49.601562 40.707031 47.625 C 41.445312 47.148438 42.046875 46.710938 42.773438 46.121094 C 43.960938 45.164062 45.273438 43.859375 46.230469 42.675781 C 48.980469 39.265625 50.703125 35.210938 51.242188 30.871094 C 51.371094 29.839844 51.386719 29.414062 51.398438 28.027344 C 51.398438 26.433594 51.34375 25.730469 51.132812 24.371094 C 50.039062 17.289062 45.683594 11.074219 39.367188 7.574219 C 36.46875 5.96875 33.285156 5.023438 29.886719 4.738281 C 29.257812 4.695312 27.527344 4.667969 26.90625 4.703125 Z M 35.902344 27.980469 L 35.902344 41.835938 L 31.0625 41.835938 L 31.0625 17.882812 L 30.097656 17.882812 C 27.992188 17.882812 27.207031 17.964844 26.222656 18.292969 C 24.78125 18.765625 23.769531 19.652344 23.269531 20.871094 C 23.023438 21.472656 22.941406 21.910156 22.921875 22.714844 C 22.859375 25.449219 23.734375 27.105469 26.242188 28.992188 C 26.667969 29.320312 27.160156 29.648438 28.664062 30.660156 C 29.25 31.054688 29.714844 31.390625 29.714844 31.398438 C 29.695312 31.4375 22.757812 41.816406 22.722656 41.84375 C 22.714844 41.855469 21.527344 41.863281 20.089844 41.855469 L 17.472656 41.84375 L 19.804688 38.371094 C 21.089844 36.46875 22.496094 34.363281 22.941406 33.695312 L 23.753906 32.492188 L 23.214844 32.09375 C 20.1875 29.824219 18.722656 27.734375 18.265625 25.039062 C 18.066406 23.851562 18.066406 22.421875 18.265625 21.300781 C 18.65625 19.113281 19.796875 17.300781 21.554688 16.078125 C 23.140625 14.976562 25.21875 14.328125 27.71875 14.164062 C 27.890625 14.15625 29.8125 14.144531 31.972656 14.136719 L 35.902344 14.136719 Z M 35.902344 27.980469 "/>
</g>
</svg>
